<svg xmlns="http://www.w3.org/2000/svg" viewBox="0 0 130 123">
<style>
  path, circle {
    fill: #1B1A1D;
  }
</style>
  <path d="M40 5.2l-3 5.2 2.8 4.9c1.5 2.7 3.3 5 3.9 5.4.7.3 4.9-1 9.4-2.6 10-3.8 14.3-3.8 24-.1 4 1.7 8 3 8.6 3 .6 0 2.5-2.4 4.2-5.2l3-5.2-2.7-5C88.7 3 87 .7 86.3.4a30 30 0 00-9.2 2.6c-10 3.9-14.5 3.9-24.1 0C48.9 1.4 45 0 44.3 0c-.6 0-2.5 2.4-4.2 5.2z"/>
  <path d="M15 15.7a86.6 86.6 0 00-14 28 91.1 91.1 0 00.5 30c4.5 19 19.9 37 38 44.5a69.8 69.8 0 0052.1-.5 67 67 0 0037-44c1.6-7.4 2-22.5.3-30-1.5-7.6-9-22.4-14.2-28.2-2.5-2.8-4.7-4.8-4.9-4.5-.3.3-10.3 25.3-22.3 55.6S65.4 121.8 65 121.8c-.4 0-10.5-25-22.6-55.4C30.4 35.9 20.2 11 19.8 11c-.3 0-2.5 2-4.8 4.7z"/>
  <circle r="3.6" cy="35.1" cx="65"/>
  <circle cx="65" cy="57.7" r="3.6"/>
  <circle r="3.6" cy="81.4" cx="65"/>
</svg>